<?xml version="1.0" standalone="no"?>
<!DOCTYPE svg PUBLIC "-//W3C//DTD SVG 20010904//EN"
 "http://www.w3.org/TR/2001/REC-SVG-20010904/DTD/svg10.dtd">
<svg version="1.0" xmlns="http://www.w3.org/2000/svg"
 width="1280.000000pt" height="720.000000pt" viewBox="0 0 1280.000000 720.000000"
 preserveAspectRatio="xMidYMid meet">
<g transform="translate(0.000000,720.000000) scale(0.100000,-0.100000)"
fill="#000000" stroke="none">
<path d="M4330 5969 c-92 -15 -193 -70 -270 -147 -71 -71 -107 -130 -137 -227
-17 -57 -18 -145 -18 -1995 0 -1850 1 -1938 18 -1995 10 -32 30 -82 44 -109
35 -69 142 -177 212 -215 123 -65 -20 -61 2111 -61 2113 0 1991 -3 2100 56
115 63 213 182 253 308 l22 71 0 1945 0 1945 -22 71 c-42 133 -136 244 -258
304 -126 63 -16 60 -2100 59 -1076 -1 -1924 -5 -1955 -10z m2317 -322 c216
-41 388 -99 575 -193 599 -299 1011 -868 1113 -1539 21 -135 24 -430 6 -565
-60 -451 -255 -857 -571 -1184 -308 -321 -721 -535 -1155 -601 -663 -100
-1317 114 -1786 584 -319 320 -515 708 -585 1156 -23 146 -23 458 -1 607 82
542 368 1022 801 1345 284 212 614 350 953 398 132 19 535 14 650 -8z"/>
<path d="M5723 5360 c-12 -24 -62 -271 -102 -501 -53 -307 -35 -428 82 -558
28 -30 65 -87 83 -127 l34 -73 0 -1151 c0 -775 3 -1158 10 -1171 9 -16 22 -19
80 -19 67 0 70 1 85 30 13 25 15 169 15 1192 0 707 4 1176 10 1196 5 19 38 64
72 101 140 148 145 217 55 769 -28 178 -56 324 -62 325 -7 1 -11 -139 -13
-400 l-2 -403 -25 0 c-17 0 -26 7 -29 23 -5 22 -36 581 -36 647 0 21 -4 30 -9
25 -5 -6 -12 -156 -16 -335 -4 -179 -9 -333 -12 -343 -3 -13 -13 -17 -31 -15
-25 3 -27 7 -33 68 -4 36 -10 214 -14 395 -6 313 -16 413 -29 294 -3 -30 -15
-207 -27 -394 -11 -193 -25 -345 -31 -352 -8 -10 -14 -10 -24 -2 -11 9 -14 89
-16 408 -3 321 -5 391 -15 371z"/>
<path d="M6456 5359 c-57 -50 -60 -77 -63 -688 -1 -391 1 -560 9 -575 6 -12
30 -43 53 -71 59 -71 79 -108 111 -205 l29 -85 5 -976 c5 -939 6 -978 24 -998
46 -50 148 -30 179 35 15 31 15 167 -4 1796 -12 970 -24 1766 -28 1770 -3 4
-69 10 -146 14 -139 7 -141 6 -169 -17z"/>
</g>
</svg>
